<svg width="20" height="20" viewBox="0 0 20 20" fill="none" xmlns="http://www.w3.org/2000/svg">
<path d="M19.8996 17.7534L19.673 17.5534C19.0299 16.9805 18.4671 16.3234 17.9996 15.6001C17.4891 14.6018 17.1831 13.5115 17.0996 12.3934V9.10006C17.0969 8.70002 17.0612 8.30089 16.993 7.90672C15.8637 7.67461 14.8493 7.0594 14.1216 6.16524C13.3939 5.27108 12.9975 4.15292 12.9996 3.00005V2.58005C12.3036 2.23751 11.5557 2.01226 10.7863 1.91339V1.07339C10.7863 0.837345 10.6925 0.61097 10.5256 0.444063C10.3587 0.277155 10.1323 0.183388 9.89629 0.183388C9.66025 0.183388 9.43388 0.277155 9.26697 0.444063C9.10006 0.61097 9.00629 0.837345 9.00629 1.07339V1.94672C7.28344 2.18976 5.70668 3.04788 4.56711 4.36268C3.42754 5.67747 2.80211 7.36015 2.80629 9.10006V12.3934C2.7228 13.5115 2.41681 14.6018 1.90629 15.6001C1.44688 16.3216 0.893089 16.9785 0.259626 17.5534L0.032959 17.7534V19.6334H19.8996V17.7534Z" fill="#656575"/>
</svg>
