<svg width="28" height="20" viewBox="0 0 28 20" fill="none" xmlns="http://www.w3.org/2000/svg">
<path d="M9.87772 18.102C9.95336 18.0905 11.1407 18.086 12.7705 18.086L13.8455 14.533L14.8243 14.7875L13.9029 18.086C15.8031 18.086 18.038 18.086 19.8191 18.0837L18.7371 14.8218H19.8993L20.9629 18.0814C22.1044 18.0791 22.8929 18.0745 22.9984 18.0653C23.4339 18.0287 23.9588 17.7032 24.1766 17.5771C24.3943 17.451 24.7932 16.9421 25.1737 17.3593C25.5542 17.7765 24.8986 18.2877 24.4493 18.5742C23.7961 18.9914 23.0534 19.0281 22.6179 19.0281C22.1823 19.0281 10.0038 19.0464 9.84104 19.0281C9.67829 19.0097 9.46053 18.7553 9.46053 18.5742C9.46053 18.3931 9.59119 18.1433 9.87772 18.102Z" fill="white"/>
<path d="M4.85776 1.6645C5.02051 1.64616 14.6616 1.50175 14.6616 1.50175C14.6616 1.50175 14.8839 1.15563 15.4868 0.990587C14.9985 0.967665 14.6272 0.930989 14.6066 0.887437C14.4622 0.561942 15.1682 0.0186865 16.273 0.000348781C17.3068 -0.0156967 18.0495 0.525267 17.9578 0.924113C17.944 0.98371 17.4948 1.01122 16.9286 1.01809C17.5131 1.19918 17.7767 1.54072 17.7767 1.54072C17.7767 1.54072 27.239 1.91894 27.5118 1.93727C27.7845 1.95561 28 2.04501 28 2.26277C28 2.48053 27.8739 2.66161 27.6378 2.66161C27.4017 2.66161 18.469 2.33612 18.469 2.33612C18.469 2.33612 22.5835 3.49598 22.8356 3.56933C23.0901 3.64268 23.4156 3.73208 23.3789 3.94984C23.3422 4.1676 23.0167 4.14926 22.8173 4.09425C22.6179 4.03924 16.9102 2.62723 16.9102 2.62723V4.20199C17.3962 4.19969 17.795 4.21345 17.8523 4.257C18.0243 4.38995 18.1939 5.01572 18.2695 5.56127C18.3612 6.21455 18.3773 6.90222 18.3773 6.90222L15.8765 7.04663L14.8977 4.25471C14.8977 4.25471 15.1361 4.24325 15.4776 4.23178V2.73267C15.4776 2.73267 9.37114 4.29138 9.20839 4.32806C9.04564 4.36473 8.77287 4.3464 8.75453 4.18365C8.73619 4.0209 8.77287 3.87649 8.99063 3.7848C9.20839 3.69311 13.9189 2.35216 13.9189 2.35216C13.9189 2.35216 5.38268 2.35216 5.00217 2.33383C4.62166 2.31549 4.51393 2.20776 4.51393 1.98999C4.51393 1.77453 4.69501 1.68284 4.85776 1.6645Z" fill="white"/>
<path d="M24.8642 11.0878L25.3708 11.56L26.0585 12.5388C26.0585 12.5388 26.4023 13.4442 25.2975 14.1342C24.1926 14.8218 22.7966 15.3491 17.9761 15.239C13.1556 15.1313 11.0536 14.2052 10.1482 13.082C9.24275 11.9589 9.1694 10.9801 9.1694 10.9801L7.66571 9.5314L4.38554 9.58641C4.38554 9.58641 3.15233 12.9583 3.11794 13.0293C3.08127 13.1027 2.23086 13.1027 2.23086 13.1027L1.59591 11.3079C1.59591 11.3079 1.6876 9.2953 1.63259 9.07983C1.57757 8.86207 -0.0338554 3.82378 0.000528336 3.64269C0.0349102 3.46161 0.0715866 3.45244 0.197659 3.44556C0.32373 3.43639 0.651518 3.45473 0.651518 3.45473L3.95231 6.9687L4.21362 7.56697L4.87149 7.6747L9.68057 7.27586C9.68057 7.27586 9.68057 6.86326 9.80205 6.49421C9.92354 6.12746 10.2467 5.51314 10.2467 5.51314L16.9744 5.95096L17.4443 6.67759L19.6953 7.84204L24.8642 11.0878Z" fill="white"/>
<path d="M2.49223 3.43867C2.53807 3.51661 3.95008 6.96869 3.95008 6.96869L2.18048 11.5417C2.18048 11.5417 2.20341 11.7113 2.39366 11.7525C2.58392 11.7938 2.98047 11.5073 2.98047 11.5073L2.36386 13.0981C2.36386 13.0981 0.850996 13.0981 0.837244 13.0431C0.82349 12.9881 1.87562 8.22941 1.87562 8.12167C1.87562 8.01394 0.497995 3.3997 0.497995 3.3997C0.497995 3.3997 2.45326 3.3699 2.49223 3.43867ZM11.1316 7.82139C11.1316 7.82139 10.4485 8.24545 10.0405 8.73599C9.68063 9.16693 9.22218 9.89585 9.22218 9.89585L7.70702 8.69473L4.13116 8.85748C4.13116 8.85748 4.16784 8.16752 4.19993 8.01165C4.24119 7.80764 4.33746 7.54862 4.33746 7.54862L9.6875 7.17957L11.1316 7.82139ZM16.9745 5.95094C16.9745 5.95094 15.8421 6.10911 13.9029 6.22372C12.2777 6.31999 11.0766 6.40022 10.5723 6.1412C10.2239 5.9624 10.1207 5.77215 10.1207 5.77215C10.1207 5.77215 10.625 4.69481 10.8313 4.57103C11.0353 4.44725 13.5866 4.14009 14.8977 4.25699C15.9911 4.35327 16.9745 5.95094 16.9745 5.95094ZM9.9534 9.87064C9.9534 9.87064 12.0233 6.58589 17.2335 6.68216C22.4414 6.78073 23.372 10.6913 23.372 10.6913L21.5153 11.262C21.5153 11.262 21.4168 11.7823 21.6873 11.8488C21.9555 11.9153 24.2958 11.9015 24.6442 11.8901C25.2585 11.8672 25.2906 11.4408 25.2906 11.4408C25.2906 11.4408 25.6253 11.6952 25.7995 11.9726C25.9737 12.25 26.0631 12.5365 26.0631 12.5365C26.0631 12.5365 25.8935 13.0385 25.0018 13.419C24.1101 13.8018 21.5704 14.313 17.9739 14.29C14.3774 14.2671 11.3241 13.4305 10.4646 12.0505C9.60269 10.6752 9.9534 9.87064 9.9534 9.87064ZM17.9051 11.8465C18.0931 11.9955 19.7916 12.0574 20.0598 11.8144C20.2753 11.6196 20.0437 11.2047 20.0437 11.2047L19.2919 10.7348C19.2919 10.7348 17.7515 10.9136 17.7446 11.1657C17.7401 11.3812 17.7722 11.7411 17.9051 11.8465ZM14.1275 11.9313C14.4232 12.0253 15.661 12.0528 15.9292 12.0253C16.1974 11.9978 16.4129 12.0047 16.5481 11.7617C16.6834 11.5187 16.6008 11.1107 16.6008 11.1107L13.6393 10.5514C13.6393 10.5514 13.637 11.0282 13.6668 11.3399C13.6943 11.6104 13.8823 11.8534 14.1275 11.9313Z" fill="white"/>
<path d="M19.1543 8.0002C19.3629 8.1767 20.1743 11.1474 20.0437 11.2047C19.9153 11.262 17.8684 11.2758 17.7446 11.1635C17.6208 11.0511 17.3457 8.03687 17.4374 7.94518C17.5291 7.85579 18.9847 7.85579 19.1543 8.0002ZM16.3372 8.06438C16.4426 8.14232 16.642 11.1543 16.5985 11.2735C16.5435 11.4248 15.9956 11.3904 15.1956 11.3904C14.3957 11.3904 13.6759 11.2322 13.6232 10.7348C13.5636 10.1732 13.598 9.2678 13.6232 8.88729C13.6484 8.50678 14.0427 8.19275 14.6065 8.0873C15.0329 8.01166 16.1973 7.95894 16.3372 8.06438ZM21.8018 12.3233C21.9118 12.195 23.4018 12.2683 23.466 13.3846C23.5049 14.0654 22.666 14.4711 22.4826 14.4597C22.2992 14.4482 22.1686 14.0264 21.9852 13.4373C21.8293 12.9331 21.7239 12.415 21.8018 12.3233Z" fill="white"/>
<path d="M24.9605 11.223C24.9078 11.4316 21.6712 11.395 21.5153 11.301C21.3847 11.223 20.1789 7.38358 20.2317 7.30564C20.2844 7.22771 21.4901 7.39733 23.2574 8.87811C24.3462 9.79041 25.0109 11.0145 24.9605 11.223Z" fill="white"/>
<path d="M19.0512 9.38927C18.8242 9.45574 18.6179 8.9973 18.4093 8.89185C18.2007 8.78641 17.8752 8.63054 17.8844 8.43341C17.8982 8.19731 18.5537 8.01394 18.8151 8.22482C19.0764 8.4357 19.4042 9.28383 19.0512 9.38927ZM15.9704 8.47238C16.1538 8.66951 16.2065 9.49471 15.9314 9.54743C15.6564 9.60015 15.5257 9.2334 15.2896 9.06148C15.0535 8.89186 14.6959 8.78412 14.712 8.48384C14.7257 8.25003 15.6426 8.11709 15.9704 8.47238Z" fill="white"/>
<path d="M21.1211 8.01394C21.2999 7.85119 22.2855 8.44716 22.9823 9.10045C23.6356 9.71705 24.2774 10.5331 24.0941 10.7784C23.7938 11.1841 23.1497 10.1228 22.4299 9.48095C22.0838 9.1715 20.8185 8.289 21.1211 8.01394Z" fill="white"/>
<path d="M4.0188 5.167C4.35117 5.23806 4.0188 6.71883 3.90419 7.20937C3.78958 7.7022 3.46179 8.4082 3.46179 8.4082L2.781 8.09187C2.781 8.09187 2.99647 6.98244 3.2234 6.33833C3.45033 5.69421 3.72998 5.10282 4.0188 5.167ZM3.30133 8.99042C3.30133 8.99042 3.3105 9.51993 3.03773 10.3176C2.77412 11.097 2.42341 11.7732 2.11626 11.6769C1.83202 11.5875 2.02915 10.4116 2.16898 9.9096C2.3088 9.40761 2.61825 8.76808 2.61825 8.76808L3.30133 8.99042Z" fill="white"/>
<path d="M3.25087 7.94976C3.78037 8.14918 3.74828 8.58012 3.63137 8.85748C3.54656 9.05919 3.19814 9.34343 2.79013 9.16005C2.4738 9.01793 2.27667 8.73828 2.43484 8.30505C2.53569 8.02311 2.83139 7.79159 3.25087 7.94976Z" fill="white"/>
</svg>
