<svg width="22" height="18" viewBox="0 0 22 18" fill="none" xmlns="http://www.w3.org/2000/svg">
<path d="M1.86188 1.86188C1.22999 2.49377 0.875 3.35079 0.875 4.24442V13.6172C0.875 14.5108 1.22999 15.3678 1.86188 15.9997C2.49377 16.6316 3.35079 16.9866 4.24442 16.9866H17.9431C18.8367 16.9866 19.6937 16.6316 20.3256 15.9997C20.9575 15.3678 21.3125 14.5108 21.3125 13.6172V4.24442C21.3125 3.35079 20.9575 2.49377 20.3256 1.86188C19.6937 1.22999 18.8367 0.875 17.9431 0.875H4.24442C3.35079 0.875 2.49377 1.22999 1.86188 1.86188ZM3.05828 3.05828C3.37286 2.7437 3.79953 2.56696 4.24442 2.56696H17.9431C18.388 2.56696 18.8146 2.7437 19.1292 3.05828C19.4438 3.37286 19.6205 3.79953 19.6205 4.24442V5.20089H2.56696V4.24442C2.56696 3.79953 2.7437 3.37286 3.05828 3.05828ZM3.05828 14.8033C2.7437 14.4887 2.56696 14.0621 2.56696 13.6172V6.89286H19.6205V13.6172C19.6205 14.0621 19.4438 14.4887 19.1292 14.8033C18.8146 15.1179 18.388 15.2946 17.9431 15.2946H4.24442C3.79953 15.2946 3.37286 15.1179 3.05828 14.8033ZM16.8616 10.9688H14.6987C14.4743 10.9688 14.2591 11.0579 14.1005 11.2165C13.9418 11.3752 13.8527 11.5904 13.8527 11.8147C13.8527 12.0391 13.9418 12.2543 14.1005 12.4129C14.2591 12.5716 14.4743 12.6607 14.6987 12.6607H16.8616C17.086 12.6607 17.3012 12.5716 17.4598 12.4129C17.6185 12.2543 17.7076 12.0391 17.7076 11.8147C17.7076 11.5904 17.6185 11.3752 17.4598 11.2165C17.3012 11.0579 17.086 10.9688 16.8616 10.9688Z" fill="white" stroke="white" stroke-width="0.25"/>
</svg>
